<svg id="visual" viewBox="0 0 960 540" width="960" height="540" xmlns="http://www.w3.org/2000/svg" xmlns:xlink="http://www.w3.org/1999/xlink" version="1.1"><rect x="0" y="0" width="960" height="540" fill="#002233"></rect><path d="M220 0L208.2 15C196.3 30 172.7 60 210.7 90C248.7 120 348.3 150 394.7 180C441 210 434 240 410.3 270C386.7 300 346.3 330 322.2 360C298 390 290 420 300.8 450C311.7 480 341.3 510 356.2 525L371 540L0 540L0 525C0 510 0 480 0 450C0 420 0 390 0 360C0 330 0 300 0 270C0 240 0 210 0 180C0 150 0 120 0 90C0 60 0 30 0 15L0 0Z" fill="#0066FF" stroke-linecap="round" stroke-linejoin="miter"></path></svg>