<?xml version="1.0" standalone="no"?>
<!DOCTYPE svg PUBLIC "-//W3C//DTD SVG 20010904//EN"
 "http://www.w3.org/TR/2001/REC-SVG-20010904/DTD/svg10.dtd">
<svg version="1.0" xmlns="http://www.w3.org/2000/svg"
 width="45.0000000pt" height="38.7000000pt" viewBox="0 0 450.000000 387.000000"
 preserveAspectRatio="xMidYMid meet">

<g transform="translate(0.000000,387.000000) scale(0.100000,-0.100000)"
fill="#ffffff" stroke="none">
<path d="M1750 3846 c-30 -12 -80 -38 -110 -57 -53 -33 -60 -34 -180 -40 -142
-6 -152 -10 -270 -98 -41 -31 -149 -94 -239 -141 -141 -73 -167 -90 -193 -128
-33 -48 -91 -171 -162 -344 -29 -69 -127 -255 -238 -450 -104 -183 -221 -396
-259 -474 -70 -137 -71 -142 -72 -220 -1 -43 0 -92 3 -109 2 -16 -5 -82 -15
-145 -32 -206 -1 -439 82 -625 80 -179 193 -391 224 -421 l30 -29 142 1 c78 1
215 9 304 18 89 9 175 14 190 10 16 -3 73 -17 127 -30 120 -29 171 -30 213 -4
28 17 60 57 51 65 -2 1 -28 15 -58 30 -61 31 -155 117 -294 271 -85 93 -96
110 -140 217 l-48 117 -37 -29 c-93 -74 -202 -121 -278 -121 -43 0 -88 23
-136 69 -36 35 -40 36 -102 33 -86 -3 -114 19 -122 100 -3 31 -2 73 2 95 l7
38 34 -68 c38 -74 65 -93 121 -82 38 7 98 -17 116 -47 7 -11 26 -28 44 -39
l32 -20 53 27 c29 14 92 54 141 88 71 50 86 65 82 81 -45 157 -55 214 -54 304
l0 96 15 -50 c149 -503 184 -600 248 -688 79 -111 352 -359 409 -372 12 -3 82
-16 155 -30 73 -14 163 -35 200 -47 76 -23 572 -269 702 -348 124 -75 175
-100 370 -176 l175 -68 130 -4 c75 -2 148 1 171 7 38 10 220 146 272 203 l23
26 -73 17 c-196 47 -436 150 -599 257 -141 92 -228 169 -424 375 -394 414
-506 522 -560 542 -82 31 -242 54 -326 47 -145 -13 -162 -12 -213 13 -82 40
-121 86 -146 171 -34 116 -137 413 -185 530 -23 58 -67 150 -98 205 -31 55
-55 100 -54 102 2 1 25 -4 52 -11 97 -25 100 -28 264 -235 51 -64 84 -81 161
-81 119 0 518 56 645 91 38 10 80 19 93 19 31 0 93 -33 169 -88 55 -40 61 -48
56 -72 -6 -35 6 -43 47 -29 26 10 35 9 47 -4 17 -16 16 -23 -24 -169 -9 -34
25 -18 71 33 43 48 48 51 70 40 l23 -13 -18 -49 c-22 -58 -13 -63 44 -25 l35
24 20 -21 c31 -35 32 -41 17 -92 -19 -62 -19 -105 -1 -105 8 0 39 22 68 49 71
64 84 58 74 -35 -13 -122 -13 -119 12 -122 31 -5 76 43 98 106 l19 52 45 -6
c25 -4 47 -8 48 -9 2 -2 -14 -79 -35 -172 -29 -124 -36 -169 -27 -171 15 -4
82 37 106 65 20 22 83 155 93 196 6 21 13 27 36 27 25 0 30 -5 39 -42 29 -114
58 -178 81 -178 5 0 18 14 28 31 11 17 37 42 59 55 l40 24 15 -63 c10 -36 14
-79 10 -100 -8 -53 16 -49 84 15 69 66 80 88 94 185 8 56 17 83 31 96 37 31
41 22 35 -68 -5 -67 -3 -86 8 -92 11 -6 12 -17 5 -48 -5 -22 -5 -44 -1 -48 4
-4 31 10 59 32 42 33 54 51 67 93 8 28 15 69 15 90 0 26 5 38 15 40 8 0 20 1
27 2 15 1 47 -164 47 -246 1 -31 5 -60 11 -63 5 -3 29 12 53 34 49 45 67 91
67 168 0 28 3 65 6 82 6 28 8 30 19 14 13 -17 14 -17 32 0 30 26 34 21 27 -38
-9 -73 10 -73 58 -2 19 29 27 34 31 22 11 -27 34 -16 51 25 9 22 16 47 16 54
0 8 20 38 45 67 46 54 88 147 83 183 -6 39 -62 60 -162 58 -79 0 -114 -7 -257
-50 -312 -94 -487 -125 -704 -125 -326 0 -593 95 -870 311 -145 112 -156 133
-30 57 219 -132 428 -221 622 -266 112 -26 380 -36 508 -20 142 19 307 59 470
114 141 48 156 51 255 51 87 1 111 -2 134 -17 15 -10 30 -17 32 -14 2 2 0 94
-6 203 -10 208 -29 344 -57 416 -42 111 -150 198 -243 198 -18 0 -42 13 -66
35 -165 151 -171 155 -262 176 -31 7 -69 29 -121 71 -85 68 -146 99 -240 124
-45 11 -81 29 -120 60 -68 53 -97 56 -219 19 -46 -15 -92 -23 -103 -20 -11 4
-37 30 -58 58 -66 90 -72 92 -251 71 -234 -28 -357 -5 -590 110 -88 43 -121
66 -203 144 -110 103 -117 106 -207 68z m137 -135 c12 -6 39 -37 60 -68 21
-32 83 -103 138 -158 55 -55 110 -113 122 -129 l23 -29 52 23 c61 26 125 24
184 -7 34 -17 43 -18 69 -7 53 23 100 18 133 -16 25 -25 38 -30 79 -30 69 0
114 -15 159 -53 32 -28 50 -35 102 -40 69 -7 94 -17 132 -52 14 -13 67 -44
117 -70 52 -26 117 -69 148 -97 92 -84 67 -92 -68 -20 -49 26 -103 59 -118 73
-24 23 -35 26 -77 21 -37 -3 -61 1 -98 18 -37 17 -65 22 -112 21 -47 -2 -71 3
-96 17 -25 15 -45 19 -80 15 -32 -4 -53 -1 -71 11 -21 14 -32 15 -71 5 -26 -7
-71 -9 -104 -6 -47 5 -69 2 -105 -13 -26 -11 -61 -20 -78 -20 -47 0 -154 79
-261 191 -102 107 -109 110 -190 87 -29 -8 -61 -32 -111 -83 -78 -79 -111
-100 -100 -62 31 101 141 197 247 215 l41 7 -78 59 c-42 33 -84 70 -92 83 -11
17 -25 23 -52 23 -20 0 -42 5 -49 12 -15 15 -16 95 -2 100 22 7 187 -9 207
-21z m-421 -118 c-18 -34 -56 -70 -121 -113 -69 -46 -213 -167 -229 -193 -9
-14 -18 -82 -25 -182 -6 -88 -16 -177 -23 -198 -13 -43 -68 -97 -99 -97 -19 0
-19 1 -2 27 15 23 18 60 23 262 3 149 10 243 17 256 24 42 72 75 178 123 61
27 148 70 195 95 47 26 88 47 93 47 4 0 1 -12 -7 -27z m561 -369 c30 -22 90
-114 100 -153 8 -33 -12 -43 -74 -36 -78 8 -86 12 -68 38 31 44 7 107 -40 107
-32 0 -48 -24 -48 -70 0 -36 -2 -38 -19 -29 -10 6 -28 24 -38 42 -21 33 -19
65 7 106 14 21 20 23 84 19 49 -3 76 -9 96 -24z m2168 -375 c57 -15 122 -82
140 -143 20 -65 31 -176 18 -176 -6 0 -18 20 -27 44 -11 28 -50 80 -105 140
-86 93 -116 146 -82 146 9 0 34 -5 56 -11z m-228 -104 c64 -32 72 -41 133
-153 42 -79 63 -142 46 -142 -3 0 -28 25 -57 55 -35 37 -89 76 -162 118 -99
56 -167 112 -167 137 0 6 35 10 78 10 63 0 88 -5 129 -25z m-3160 -275 c-3
-23 -23 -68 -46 -103 -22 -34 -54 -93 -71 -131 -17 -39 -46 -95 -64 -125 -19
-31 -37 -67 -41 -81 -16 -62 -30 -82 -66 -101 -21 -10 -44 -19 -52 -19 -7 0
-24 -11 -37 -25 -13 -14 -54 -46 -91 -71 l-67 -46 -6 -58 c-8 -67 -23 -85 -92
-106 -77 -23 -80 -18 -25 40 49 52 51 57 51 109 0 51 3 57 37 86 21 17 61 52
88 77 28 26 74 56 103 68 l53 21 91 190 c50 105 96 196 102 204 11 15 128 110
135 111 2 0 1 -18 -2 -40z"/>
<path d="M1885 2149 c-209 -50 -271 -61 -376 -66 -154 -7 -203 6 -281 75 -33
30 -49 40 -44 27 4 -11 39 -119 78 -240 75 -235 99 -287 150 -330 55 -46 95
-57 263 -71 162 -13 300 -36 345 -57 13 -7 56 -50 95 -97 107 -130 536 -555
660 -654 281 -225 628 -409 831 -442 41 -6 42 -6 54 31 23 71 -2 135 -75 187
l-40 29 -21 -26 c-20 -26 -21 -26 -27 -6 -9 37 -37 38 -69 2 -25 -27 -29 -29
-34 -14 -17 56 -35 84 -52 81 -9 -2 -32 -25 -49 -52 l-33 -48 0 66 c0 36 -4
66 -10 66 -5 0 -19 -13 -32 -30 -29 -40 -38 -38 -39 13 -2 90 -25 119 -51 65
l-17 -33 0 88 c-1 50 -5 87 -11 87 -5 0 -27 -23 -47 -51 l-38 -50 -6 68 c-3
37 -10 76 -14 85 -11 26 -31 22 -44 -9 -7 -16 -25 -44 -41 -63 -28 -34 -29
-35 -44 -15 -9 11 -16 36 -16 55 -1 62 -12 110 -26 110 -7 0 -24 -16 -37 -35
l-24 -35 -6 56 c-3 31 -8 59 -11 62 -4 3 -16 -4 -29 -16 -13 -12 -26 -22 -30
-22 -4 0 -7 38 -7 85 0 47 -4 85 -8 85 -4 0 -23 -25 -41 -55 -47 -77 -57 -62
-41 63 12 103 10 122 -16 122 -13 0 -14 8 -10 38 12 71 -7 73 -71 10 -32 -32
-61 -58 -63 -58 -3 0 -4 20 -2 45 4 41 2 45 -18 45 -12 0 -30 -5 -41 -10 -17
-10 -19 -7 -19 29 0 47 -9 55 -44 41 l-26 -10 0 66 0 66 -29 -7 c-28 -6 -29
-5 -36 44 -4 28 -10 51 -13 51 -4 -1 -22 -14 -41 -30 l-34 -29 -43 31 c-35 25
-50 30 -87 27 l-46 -4 -30 160 c-38 203 -45 249 -37 279 6 25 79 67 209 121
48 20 67 33 67 47 0 10 -6 17 -12 17 -7 -1 -125 -28 -263 -60z"/>
<path d="M1943 1766 c6 -15 20 -68 31 -116 4 -20 12 -25 40 -27 20 -1 53 -12
75 -24 l39 -22 28 22 c14 11 35 21 45 21 22 0 49 -37 49 -67 0 -16 6 -23 19
-23 26 0 51 -37 51 -76 0 -26 5 -33 25 -38 15 -4 30 -17 35 -31 6 -15 18 -25
28 -25 11 0 31 -9 44 -20 l25 -19 23 24 c42 45 100 24 100 -36 0 -16 7 -41 16
-54 12 -19 15 -41 12 -85 l-4 -60 21 20 c12 11 27 20 33 20 23 0 44 -48 40
-92 -2 -38 0 -43 20 -46 13 -2 31 -16 41 -32 35 -58 38 -18 10 130 -42 226
-41 224 -129 315 -64 65 -85 94 -108 153 -37 90 -70 134 -119 158 -55 26 -158
30 -248 9 l-75 -18 -38 27 c-44 30 -139 39 -129 12z"/>
<path d="M2889 1270 c-9 -14 -21 -34 -27 -45 -10 -18 -11 -17 -12 13 0 34 -18
43 -39 19 -19 -24 31 -248 71 -313 27 -45 37 -54 53 -49 11 3 37 9 57 12 34 5
39 3 48 -21 5 -15 10 -39 10 -52 0 -14 3 -24 8 -22 4 2 20 10 36 18 26 13 30
13 47 -9 11 -13 19 -34 19 -46 0 -13 14 -37 30 -53 17 -17 30 -38 30 -46 0
-10 9 -16 25 -16 14 0 33 -8 43 -17 11 -12 29 -17 48 -15 22 2 40 -5 61 -22
17 -14 33 -23 36 -19 3 3 22 -4 41 -15 30 -18 36 -19 47 -6 6 8 20 14 30 14
20 0 25 25 10 49 -8 12 -12 13 -26 1 -14 -11 -17 -10 -22 8 -6 25 -14 27 -31
10 -9 -9 -12 -8 -12 8 0 11 -9 30 -20 42 -18 19 -20 30 -15 80 5 43 3 62 -9
77 -14 19 -16 19 -64 -31 l-50 -52 -6 59 c-4 32 -11 61 -15 63 -11 7 -33 -19
-57 -64 l-18 -35 -13 69 c-7 39 -17 74 -22 79 -5 5 -23 -5 -44 -22 -37 -33
-47 -28 -47 24 0 36 -10 55 -30 55 -14 0 -18 11 -23 56 -3 31 -9 59 -12 63 -4
3 -22 -12 -41 -34 l-34 -40 0 63 c0 55 -3 65 -20 69 -16 4 -20 15 -22 62 -3
56 -3 56 -19 31z"/>
</g>
</svg>
